<svg xmlns="http://www.w3.org/2000/svg" xmlns:xlink="http://www.w3.org/1999/xlink">
  <symbol viewBox="0 0 247 70" fill="currentColor" id="logo">
    <path d="M2.89432 18.2288V51H21.3339V44.8379H10.877V18.2288H2.89432ZM51.3304 24.9511H43.3477V39.0959C43.3477 42.6438 41.387 44.6045 38.306 44.6045C35.3183 44.6045 33.3109 42.6438 33.3109 39.0959V24.9511H25.3749V40.1696C25.3749 47.1253 29.4363 51.2801 35.4583 51.2801C38.9595 51.2801 41.7605 49.6929 43.3477 47.4521V51H51.3304V24.9511ZM55.944 37.9756C55.944 46.2384 61.3591 51.3735 69.0151 51.3735C75.5506 51.3735 80.1722 47.5922 81.526 41.5701H73.0298C72.3295 43.4841 71.0691 44.5578 68.875 44.5578C66.0274 44.5578 64.0667 42.317 64.0667 37.9756C64.0667 33.6341 66.0274 31.3933 68.875 31.3933C71.0691 31.3933 72.3762 32.5604 73.0298 34.381H81.526C80.1722 28.1722 75.5506 24.5777 69.0151 24.5777C61.3591 24.5777 55.944 29.7594 55.944 37.9756ZM86.2628 51H94.2455V40.0763L102.182 51H112.078L101.155 38.0222L111.985 24.9511H102.135L94.2455 35.5481V16.4549H86.2628V51ZM114 37.9289C114 46.145 119.088 51.3735 125.437 51.3735C129.312 51.3735 132.066 49.5995 133.513 47.3121V51H141.496V24.9511H133.513V28.639C132.113 26.3516 129.358 24.5777 125.484 24.5777C119.088 24.5777 114 29.7127 114 37.9289ZM133.513 37.9756C133.513 42.1303 130.852 44.4178 127.818 44.4178C124.83 44.4178 122.123 42.0836 122.123 37.9289C122.123 33.7741 124.83 31.5334 127.818 31.5334C130.852 31.5334 133.513 33.8208 133.513 37.9756ZM155.721 28.639V16.4549H147.738V51H155.721V47.3588C157.168 49.6462 159.922 51.3735 163.75 51.3735C170.146 51.3735 175.234 46.145 175.234 37.9289C175.234 29.7127 170.192 24.5777 163.75 24.5777C160.015 24.5777 157.168 26.3049 155.721 28.639ZM167.111 37.9289C167.111 42.0836 164.404 44.4178 161.369 44.4178C158.382 44.4178 155.674 42.1303 155.674 37.9756C155.674 33.8208 158.382 31.5334 161.369 31.5334C164.404 31.5334 167.111 33.7741 167.111 37.9289ZM205.377 37.9756C205.377 29.7127 199.495 24.5777 191.839 24.5777C184.23 24.5777 178.302 29.7127 178.302 37.9756C178.302 46.2384 184.09 51.3735 191.746 51.3735C199.402 51.3735 205.377 46.2384 205.377 37.9756ZM186.424 37.9756C186.424 33.5407 188.945 31.4867 191.839 31.4867C194.64 31.4867 197.255 33.5407 197.255 37.9756C197.255 42.3637 194.594 44.4644 191.746 44.4644C188.852 44.4644 186.424 42.3637 186.424 37.9756ZM237.711 51H246.674L237.711 38.0689L246.441 24.9511H237.805L233.603 32.1402L228.608 24.9511H219.645L228.468 37.6955L219.879 51H228.515L232.716 43.7642L237.711 51Z" />
    <path d="M222.645 36.6638C219.977 33.2048 217.401 29.6765 214.787 26.179C214.485 25.7784 214.253 25.1929 213.704 25.1775C211.221 25.1775 208.738 25.1775 205.923 25.1775C208.676 28.8753 211.058 32.3112 213.711 35.5314C215.065 37.18 215.166 38.2662 213.758 39.9841C210.888 43.4816 208.297 47.218 205.327 51.2162C207.934 51.2162 210.03 51.1623 212.118 51.2162C212.555 51.25 212.992 51.1602 213.379 50.9571C213.766 50.7539 214.088 50.4459 214.307 50.0684C217.037 46.332 219.783 42.6188 222.583 38.9364C223.21 38.166 223.372 37.5575 222.645 36.6638Z" fill="#00B796"/>
  </symbol>

  <symbol viewBox="0 0 20 15" fill="currentColor" id="email">
    <path fill-rule="evenodd" clip-rule="evenodd" d="M3.33332 0.333496H16.6667C18.0474 0.333496 19.1667 1.45278 19.1667 2.8335V3.18969C19.1667 3.19697 19.1667 3.20424 19.1667 3.21151V12.0002C19.1667 13.3809 18.0474 14.5002 16.6667 14.5002H3.33332C1.95261 14.5002 0.833323 13.3809 0.833323 12.0002V3.21148C0.833228 3.20423 0.833228 3.19698 0.833323 3.18972V2.8335C0.833323 1.45278 1.95261 0.333496 3.33332 0.333496ZM2.49999 4.80187V12.0002C2.49999 12.4604 2.87309 12.8335 3.33332 12.8335H16.6667C17.1269 12.8335 17.5 12.4604 17.5 12.0002V4.80187L11.4336 9.04831C10.5728 9.65087 9.42713 9.65087 8.56633 9.04831L2.49999 4.80187ZM17.4975 2.76916L10.4779 7.68293C10.1909 7.88378 9.80904 7.88378 9.5221 7.68293L2.50244 2.76916C2.53528 2.33899 2.89473 2.00016 3.33332 2.00016H16.6667C17.1052 2.00016 17.4647 2.33899 17.4975 2.76916Z" />
  </symbol>

  <symbol viewBox="0 0 14 18" fill="currentColor" id="password">
    <path fill-rule="evenodd" clip-rule="evenodd" d="M2.8547 6.43628V4.91164C2.8547 2.56963 4.73438 0.666504 7.05879 0.666504C9.3832 0.666504 11.2629 2.56963 11.2629 4.91164V6.43628H12.4528C13.1292 6.43628 13.6667 6.99118 13.6667 7.66294V16.1065C13.6667 16.7783 13.1292 17.3332 12.4528 17.3332H1.54727C0.870904 17.3332 0.333374 16.7783 0.333374 16.1065V7.66294C0.333374 6.99118 0.870904 6.43628 1.54727 6.43628H2.8547ZM1.85236 7.95143V15.818H12.1477V7.95143H1.85236ZM9.74389 6.41293V4.91164C9.74389 3.4014 8.53917 2.18166 7.05879 2.18166C5.57841 2.18166 4.37369 3.4014 4.37369 4.91164V6.41293H9.74389Z"/>
  </symbol>

  <symbol viewBox="0 0 18 14" fill="currentColor" id="eye">
    <path fill-rule="evenodd" clip-rule="evenodd" d="M0.758281 6.53141C2.29516 2.75698 5.46598 0.333496 8.99996 0.333496C12.5339 0.333496 15.7048 2.75698 17.2416 6.53141C17.3638 6.83154 17.3638 7.16879 17.2416 7.46892C15.7048 11.2433 12.5339 13.6668 8.99996 13.6668C5.46598 13.6668 2.29516 11.2433 0.758281 7.46892C0.636074 7.16879 0.636074 6.83154 0.758281 6.53141ZM8.99996 12.1249C11.8492 12.1249 14.4614 10.1558 15.7916 7.00016C14.4614 3.84454 11.8492 1.87545 8.99996 1.87545C6.15075 1.87545 3.5385 3.84454 2.20837 7.00016C3.5385 10.1558 6.15075 12.1249 8.99996 12.1249ZM8.99996 10.0387C7.35098 10.0387 6.01422 8.67831 6.01422 7.00016C6.01422 5.32202 7.35098 3.96161 8.99996 3.96161C10.6489 3.96161 11.9857 5.32202 11.9857 7.00016C11.9857 8.67831 10.6489 10.0387 8.99996 10.0387ZM8.99996 8.49676C9.81214 8.49676 10.4705 7.82671 10.4705 7.00016C10.4705 6.17361 9.81214 5.50356 8.99996 5.50356C8.18778 5.50356 7.52937 6.17361 7.52937 7.00016C7.52937 7.82671 8.18778 8.49676 8.99996 8.49676Z" />
  </symbol>

  <symbol viewBox="0 0 18 18" fill="currentColor" id="eye-off">
    <path fill-rule="evenodd" clip-rule="evenodd" d="M17.1047 0.885052C16.8046 0.591346 16.3222 0.594003 16.0253 0.891027L12.9717 3.94637C11.7557 3.29526 10.4045 2.93923 8.99996 2.93923C5.47862 2.93923 2.29252 5.17716 0.731802 8.69242C0.644901 8.88815 0.644901 9.11152 0.731802 9.30725C1.43676 10.8951 2.47335 12.2223 3.72265 13.2003L0.889172 16.0354C0.590091 16.3346 0.592815 16.8187 0.895212 17.1146C1.19537 17.4083 1.67771 17.4057 1.97457 17.1086L5.02826 14.0533C6.24425 14.7044 7.59544 15.0604 8.99996 15.0604C12.5213 15.0604 15.7074 12.8225 17.2681 9.30725C17.355 9.11152 17.355 8.88815 17.2681 8.69242C16.5632 7.10461 15.5266 5.7774 14.2773 4.79933L17.1107 1.96432C17.4098 1.66508 17.4071 1.18095 17.1047 0.885052ZM11.8414 5.07719C10.9517 4.67202 9.99022 4.45438 8.99996 4.45438C6.19797 4.45438 3.62618 6.19687 2.25971 8.99984C2.8858 10.2841 3.76491 11.3457 4.80327 12.1191L6.38667 10.5349C6.12166 10.0847 5.96966 9.56002 5.96966 8.99984C5.96966 7.32625 7.32637 5.96953 8.99996 5.96953C9.55956 5.96953 10.0837 6.12122 10.5336 6.38572L11.8414 5.07719ZM11.6132 7.46478L13.1966 5.88053C14.235 6.65394 15.1141 7.71558 15.7402 8.99984C14.3737 11.8028 11.802 13.5453 8.99996 13.5453C8.0097 13.5453 7.04819 13.3277 6.15848 12.9225L7.46631 11.614C7.91618 11.8785 8.44036 12.0301 8.99996 12.0301C10.6736 12.0301 12.0303 10.6734 12.0303 8.99984C12.0303 8.43965 11.8783 7.91497 11.6132 7.46478ZM9.38572 7.53423C9.26256 7.5019 9.13327 7.48469 8.99996 7.48469C8.16316 7.48469 7.48481 8.16304 7.48481 8.99984C7.48481 9.13343 7.5021 9.26299 7.53456 9.38639L9.38572 7.53423ZM8.6142 10.4654L10.4654 8.61329C10.4978 8.73669 10.5151 8.86625 10.5151 8.99984C10.5151 9.83663 9.83675 10.515 8.99996 10.515C8.86665 10.515 8.73736 10.4978 8.6142 10.4654Z" />
  </symbol>

  <symbol viewBox="0 0 533.5 544.3" fill="currentColor" id="google">
    <path d="M533.5 278.4c0-18.5-1.5-37.1-4.7-55.3H272.1v104.8h147c-6.1 33.8-25.7 63.7-54.4 82.7v68h87.7c51.5-47.4 81.1-117.4 81.1-200.2z" fill="#4285f4"/><path d="M272.1 544.3c73.4 0 135.3-24.1 180.4-65.7l-87.7-68c-24.4 16.6-55.9 26-92.6 26-71 0-131.2-47.9-152.8-112.3H28.9v70.1c46.2 91.9 140.3 149.9 243.2 149.9z" fill="#34a853"/><path d="M119.3 324.3c-11.4-33.8-11.4-70.4 0-104.2V150H28.9c-38.6 76.9-38.6 167.5 0 244.4l90.4-70.1z" fill="#fbbc04"/><path d="M272.1 107.7c38.8-.6 76.3 14 104.4 40.8l77.7-77.7C405 24.6 339.7-.8 272.1 0 169.2 0 75.1 58 28.9 150l90.4 70.1c21.5-64.5 81.8-112.4 152.8-112.4z" fill="#ea4335"/>
  </symbol>

  <symbol viewBox="0 0 16 16" fill="currentColor" id="facebook">
    <path d="M15.117 16C15.6046 16 16 15.6046 16 15.1169V0.88307C16 0.395283 15.6047 0 15.117 0H0.883077C0.395286 0 0 0.395283 0 0.88307V15.1169C0 15.6045 0.395224 16 0.883077 16H15.117Z" fill="#3C5A99"/>
    <path d="M11.0398 16V9.8039H13.1195L13.4309 7.38918H11.0398V5.84753C11.0398 5.14841 11.2339 4.67198 12.2364 4.67198L13.5151 4.67143V2.51168C13.294 2.48225 12.5349 2.4165 11.6519 2.4165C9.8083 2.4165 8.54614 3.54182 8.54614 5.60838V7.38918H6.46106V9.8039H8.54614V16H11.0398Z" fill="white"/>
  </symbol>

  <symbol viewBox="0 0 16 14" fill="currentColor" id="twitter">
    <path d="M5.03168 14C11.0694 14 14.3718 8.61336 14.3718 3.94209C14.3718 3.7891 14.3718 3.63679 14.3622 3.48517C15.0047 2.98476 15.5593 2.36516 16 1.65539C15.4009 1.94126 14.7653 2.12874 14.1146 2.21156C14.7998 1.76978 15.3127 1.07494 15.5578 0.256354C14.9134 0.668109 14.2084 0.958293 13.4733 1.11438C12.4557 -0.050749 10.8389 -0.335919 9.52931 0.41878C8.21976 1.17348 7.54322 2.78036 7.87904 4.33837C5.23961 4.19588 2.78046 2.85341 1.1136 0.645052C0.242319 2.26025 0.687352 4.32656 2.12992 5.36387C1.60751 5.3472 1.0965 5.19545 0.64 4.92142C0.64 4.93589 0.64 4.95105 0.64 4.96622C0.640428 6.64892 1.74192 8.09822 3.2736 8.43142C2.79032 8.57335 2.28325 8.5941 1.79136 8.49207C2.22141 9.93206 3.45381 10.9185 4.85824 10.9469C3.69583 11.9307 2.25988 12.4647 0.78144 12.4631C0.520258 12.4626 0.259331 12.4456 0 12.4121C1.50121 13.4495 3.24794 13.9998 5.03168 13.9972" fill="#1DA1F2"/>
  </symbol>  
</svg>